<svg width="36" height="26" viewBox="0 0 36 26" fill="none" xmlns="http://www.w3.org/2000/svg">
<path d="M33 0.5H3C2.33696 0.5 1.70107 0.763392 1.23223 1.23223C0.763392 1.70107 0.5 2.33696 0.5 3V23C0.5 23.663 0.763392 24.2989 1.23223 24.7678C1.70107 25.2366 2.33696 25.5 3 25.5H33C33.663 25.5 34.2989 25.2366 34.7678 24.7678C35.2366 24.2989 35.5 23.663 35.5 23V3C35.5 2.33696 35.2366 1.70107 34.7678 1.23223C34.2989 0.763392 33.663 0.5 33 0.5ZM30.25 3L18 11.475L5.75 3H30.25ZM3 23V4.1375L17.2875 14.025C17.4967 14.1702 17.7453 14.2479 18 14.2479C18.2547 14.2479 18.5033 14.1702 18.7125 14.025L33 4.1375V23H3Z" fill="black"/>
</svg>
