<svg width="30" height="40" viewBox="0 0 30 40" fill="none" xmlns="http://www.w3.org/2000/svg">
<path d="M25.415 22.35C24.105 25.005 22.33 27.65 20.515 30.025C18.7932 32.264 16.9522 34.4088 15 36.45C13.0477 34.4088 11.2067 32.2641 9.485 30.025C7.67 27.65 5.895 25.005 4.585 22.35C3.26 19.6675 2.5 17.155 2.5 15C2.5 11.6848 3.81696 8.50537 6.16117 6.16117C8.50537 3.81696 11.6848 2.5 15 2.5C18.3152 2.5 21.4946 3.81696 23.8388 6.16117C26.183 8.50537 27.5 11.6848 27.5 15C27.5 17.155 26.7375 19.6675 25.415 22.35ZM15 40C15 40 30 25.785 30 15C30 11.0218 28.4196 7.20644 25.6066 4.3934C22.7936 1.58035 18.9782 0 15 0C11.0218 0 7.20644 1.58035 4.3934 4.3934C1.58035 7.20644 5.92805e-08 11.0218 0 15C0 25.785 15 40 15 40Z" fill="black"/>
<path d="M15 20C13.6739 20 12.4021 19.4732 11.4645 18.5355C10.5268 17.5979 10 16.3261 10 15C10 13.6739 10.5268 12.4021 11.4645 11.4645C12.4021 10.5268 13.6739 10 15 10C16.3261 10 17.5979 10.5268 18.5355 11.4645C19.4732 12.4021 20 13.6739 20 15C20 16.3261 19.4732 17.5979 18.5355 18.5355C17.5979 19.4732 16.3261 20 15 20ZM15 22.5C16.9891 22.5 18.8968 21.7098 20.3033 20.3033C21.7098 18.8968 22.5 16.9891 22.5 15C22.5 13.0109 21.7098 11.1032 20.3033 9.6967C18.8968 8.29018 16.9891 7.5 15 7.5C13.0109 7.5 11.1032 8.29018 9.6967 9.6967C8.29018 11.1032 7.5 13.0109 7.5 15C7.5 16.9891 8.29018 18.8968 9.6967 20.3033C11.1032 21.7098 13.0109 22.5 15 22.5Z" fill="black"/>
</svg>
